<svg xmlns="http://www.w3.org/2000/svg" width="24" height="24" viewBox="0 0 24 24" fill="none" stroke="#5f6b7a" stroke-width="1.8" stroke-linecap="round" stroke-linejoin="round">
  <path d="M8.4 5.2a3.1 3.1 0 0 0-4.2 2.9 3.1 3.1 0 0 0 .8 2.1 3.5 3.5 0 0 0-.2 5.2 3.2 3.2 0 0 0 4.4 3.1"/>
  <path d="M15.6 5.2a3.1 3.1 0 0 1 4.2 2.9 3.1 3.1 0 0 1-.8 2.1 3.5 3.5 0 0 1 .2 5.2 3.2 3.2 0 0 1-4.4 3.1"/>
  <path d="M8.4 5.2c1.4.4 2.2 1.4 2.2 3v10.2"/>
  <path d="M15.6 5.2c-1.4.4-2.2 1.4-2.2 3v10.2"/>
  <path d="M7.6 10.4h3"/>
  <path d="M13.4 10.4h3"/>
  <path d="M8.2 14.2c.9.2 1.7.7 2.4 1.6"/>
  <path d="M15.8 14.2c-.9.2-1.7.7-2.4 1.6"/>
</svg>
